<svg width="36" height="36" viewBox="0 0 36 36" fill="none" xmlns="http://www.w3.org/2000/svg">
<g clip-path="url(#clip0_312_61)">
<path fill-rule="evenodd" clip-rule="evenodd" d="M8 0C3.58172 0 0 3.58172 0 8V28C0 32.4183 3.58172 36 8 36H28C32.4183 36 36 32.4183 36 28V8C36 3.58172 32.4183 0 28 0H8ZM24.5412 12.1844L16.2335 26.5737C15.4688 27.8982 13.7751 28.352 12.4506 27.5873C11.1261 26.8226 10.6723 25.129 11.437 23.8045L19.7447 9.41512C20.5094 8.09062 22.203 7.63681 23.5275 8.40151L23.5276 8.40152C24.8521 9.16622 25.3059 10.8599 24.5412 12.1844ZM25.3323 25.5491L26.7169 23.1509C27.4816 21.8264 27.0278 20.1328 25.7033 19.3681C24.3788 18.6034 22.6852 19.0572 21.9205 20.3817L20.5359 22.7799C19.7712 24.1044 20.225 25.798 21.5495 26.5627C22.874 27.3274 24.5676 26.8736 25.3323 25.5491ZM15.442 13.2085L14.0574 15.6067C13.2927 16.9312 11.5991 17.3851 10.2746 16.6204L10.2746 16.6203C8.95008 15.8556 8.49627 14.162 9.26097 12.8375L10.6456 10.4393C11.4103 9.11479 13.1039 8.66098 14.4284 9.42568L14.4284 9.42569C15.7529 10.1904 16.2067 11.884 15.442 13.2085Z" fill="#A7AAAD"/>
</g>
<defs>
<clipPath id="clip0_312_61">
<rect width="36" height="36" fill="white"/>
</clipPath>
</defs>
</svg>
