<svg xmlns="http://www.w3.org/2000/svg" width="100" height="100" viewBox="0 0 100 100" fill="none">
    <path fill-rule="evenodd" clip-rule="evenodd"
          d="M0 24.3243C0 10.8904 10.8904 0 24.3243 0H75.6757C89.1096 0 100 10.8904 100 24.3243V75.6757C100 89.1096 89.1096 100 75.6757 100H24.3243C10.8904 100 0 89.1096 0 75.6757V24.3243ZM45.5224 68.6479H15.7142L20.3921 57.8304C21.7655 54.6544 24.8948 52.5983 28.355 52.5983H63.8635L61.4481 58.1838C58.7013 64.5356 52.4427 68.6479 45.5224 68.6479ZM28.2879 47.4799H70.2163C73.6764 47.4799 76.8057 45.4237 78.1791 42.2478L82.857 31.4303H46.629C39.7087 31.4303 33.4501 35.5426 30.7033 41.8944L28.2879 47.4799Z"
          fill="#00009F"/>
</svg>
