<svg width="335" height="110" viewBox="0 0 335 110" fill="none" xmlns="http://www.w3.org/2000/svg">
<path fill-rule="evenodd" clip-rule="evenodd" d="M318.886 55.6941H320.111C320.111 55.6941 334.558 55.9396 334.803 74.5973C334.803 92.5184 316.927 107.739 295.869 107.739C292.441 107.739 264.036 106.757 261.832 72.6333C256.2 72.3878 246.65 71.4058 238.57 67.9689C230.489 87.854 218.001 103.566 210.41 103.566C202.819 103.566 196.452 93.7459 191.31 74.8428L190.82 72.8788C181.026 89.5725 167.558 103.32 160.946 103.32C153.111 103.32 143.561 94.2369 143.561 85.6446C143.561 77.0522 146.254 56.4306 146.254 56.4306C146.254 56.4306 139.153 57.9036 128.869 59.3765C126.91 69.1964 116.136 109.703 74.0183 109.703C23.8203 109.703 0.802734 55.2031 0.802734 55.2031C6.373 51.7539 13.286 44.5132 21.0284 36.4039C36.4302 20.2723 55.114 0.703125 73.0388 0.703125C99.9743 0.703125 109.524 34.0905 109.524 34.0905L107.32 37.7729C107.32 37.7729 98.5051 26.4802 78.181 26.4802C62.6565 26.4802 50.8983 40.465 42.3798 50.5964C39.6119 53.8885 37.1861 56.7737 35.0843 58.6401C35.0843 58.6401 56.3878 92.2729 84.0579 92.2729C98.75 92.2729 114.666 79.5072 123.726 60.113C108.055 62.3225 87.486 64.2865 73.0388 62.568C73.0388 62.568 72.3042 61.8315 72.0593 61.095C71.5696 60.113 71.5696 59.1311 71.5696 59.1311C122.747 59.1311 161.191 37.7729 164.619 35.5635C164.864 35.318 165.109 35.318 165.354 35.318C168.652 36.116 166.933 47.3968 165.126 59.252C163.043 72.9254 160.843 87.363 166.089 87.363C171.476 87.363 182.25 70.6693 188.372 60.604C186.249 49.8021 184.127 39.6549 182.948 34.0176C182.359 31.1991 182.005 29.5079 182.005 29.4261V28.6896L182.495 28.4441C182.74 28.1986 193.269 24.0252 199.88 24.0252C204.778 24.0252 207.716 26.7256 207.716 31.3901C207.716 34.336 206.247 40.4734 203.553 47.8383C205.219 63.4926 210.779 78.0822 213.46 85.1191C213.933 86.3588 214.316 87.3641 214.573 88.0995L214.635 88.0261C217.392 84.7597 225.629 75.0011 230.489 63.55C224.857 59.1311 222.163 52.9937 222.163 45.6288C222.163 33.354 229.02 26.9711 235.631 26.9711C240.284 26.9711 245.181 30.1626 245.181 37.282C245.181 42.4374 244.446 48.0838 242.977 54.2211C246.895 57.9036 253.262 61.8315 261.832 62.077C263.546 44.4013 272.117 19.1153 289.012 19.1153C306.888 19.1153 309.581 34.0905 309.581 43.1738C309.581 55.6941 298.317 66.4959 280.932 70.6693C281.422 84.9081 285.339 97.4284 295.869 97.4284C302.48 97.4284 307.867 94.7279 312.03 89.5725C319.376 80.7347 321.09 66.4959 319.131 56.9216L318.886 55.6941ZM281.422 58.3943C294.155 52.7479 294.4 41.7006 294.4 41.4551C294.4 34.3358 291.461 30.1623 288.768 29.9168C286.319 29.9168 282.646 43.4191 281.422 58.3943Z" fill="#66BB6A"/>
<path d="M147.479 27.9529C147.479 28.4439 147.724 28.6894 148.214 28.9349C158.253 30.4079 164.865 27.2164 164.865 11.0137C164.865 -4.20701 149.193 7.82227 146.255 10.0317C146.01 10.2772 146.01 10.5227 146.01 11.0137C148.703 16.9056 147.969 25.4979 147.479 27.9529Z" fill="#66BB6A"/>
<mask id="mask0" mask-type="alpha" maskUnits="userSpaceOnUse" x="261" y="70" width="26" height="25">
<path fill-rule="evenodd" clip-rule="evenodd" d="M271.382 72.3923C266.485 72.8832 261.832 72.6378 261.832 72.6378C262.567 82.4576 265.122 89.0783 268.795 94.2337L286.671 92.7607C282.875 87.7894 281.288 80.3478 280.932 70.6699C280.932 70.6699 276.034 71.9013 271.382 72.3923Z" fill="white"/>
</mask>
<g mask="url(#mask0)">
<path d="M289.257 93.9926L286.319 67.7246L259.139 70.9161L262.077 97.1841L289.257 93.9926Z" fill="url(#paint0_linear)"/>
</g>
<mask id="mask1" mask-type="alpha" maskUnits="userSpaceOnUse" x="261" y="40" width="23" height="23">
<path d="M281.422 58.3983C277.634 60.7367 265.872 62.3944 261.832 62.0763C262.424 56.5693 263.609 48.9609 266.729 40.7182C269.113 40.1527 279.954 40.136 283.24 44.7931C282.531 48.5993 282.22 50.9425 281.964 52.9972C281.752 54.7589 281.595 56.3089 281.422 58.3983Z" fill="white"/>
</mask>
<g mask="url(#mask1)">
<rect x="261.588" y="40.4609" width="21.6523" height="21.6545" fill="url(#paint1_linear)"/>
</g>
<mask id="mask2" mask-type="alpha" maskUnits="userSpaceOnUse" x="173" y="60" width="18" height="32">
<path fill-rule="evenodd" clip-rule="evenodd" d="M173.316 82.2165C174.541 85.1624 175.865 88.5821 177.334 91.5281C179.744 88.7375 182.394 85.6112 185.522 81.0945C187.367 78.4299 189.288 75.3621 190.821 72.8781L188.382 60.5918C184.46 67.2758 177.793 77.4313 173.316 82.2165Z" fill="white"/>
</mask>
<g mask="url(#mask2)">
<path d="M174.904 96.9374L200.125 88.345L189.106 55.2031L163.885 63.7955L174.904 96.9374Z" fill="url(#paint2_linear)"/>
</g>
<mask id="mask3" mask-type="alpha" maskUnits="userSpaceOnUse" x="218" y="63" width="21" height="28">
<path fill-rule="evenodd" clip-rule="evenodd" d="M218.98 82.6861C220.695 85.141 223.878 88.3441 226.082 90.7991C227.877 88.2996 229.8 85.391 231.645 82.1491C234.297 77.4893 236.744 72.3721 238.57 67.968C238.57 67.968 236.159 67.122 234.189 65.9809C232.219 64.8397 230.497 63.5547 230.497 63.5547C227.034 71.5141 222.539 78.1022 218.98 82.6861Z" fill="white"/>
</mask>
<g mask="url(#mask3)">
<path d="M233.916 99.1462L250.323 69.9323L223.877 54.957L207.471 83.9255L233.916 99.1462Z" fill="url(#paint3_linear)"/>
</g>
<mask id="mask4" mask-type="alpha" maskUnits="userSpaceOnUse" x="201" y="30" width="7" height="18">
<path fill-rule="evenodd" clip-rule="evenodd" d="M201.35 32.6172C201.35 32.6172 201.594 37.0361 203.553 47.8379C206.247 40.2275 207.693 34.3836 207.693 31.4377C207.693 31.1922 207.693 30.9467 207.693 30.7012L201.35 32.6172Z" fill="white"/>
</mask>
<g mask="url(#mask4)">
<path d="M203.064 27.707L193.514 42.9277L206.002 50.5381L215.552 35.3174L203.064 27.707Z" fill="url(#paint4_linear)"/>
</g>
<mask id="mask5" mask-type="alpha" maskUnits="userSpaceOnUse" x="237" y="39" width="9" height="16">
<path fill-rule="evenodd" clip-rule="evenodd" d="M237.586 42.6858C237.586 42.6858 235.872 47.8412 242.973 54.224C244.197 49.0686 244.882 44.1645 245.141 39.5039L237.586 42.6858Z" fill="white"/>
</mask>
<g mask="url(#mask5)">
<path d="M236.61 36.7891L232.447 52.9918L244.691 56.1832L249.098 40.226L236.61 36.7891Z" fill="url(#paint5_linear)"/>
</g>
<mask id="mask6" mask-type="alpha" maskUnits="userSpaceOnUse" x="106" y="59" width="23" height="30">
<path fill-rule="evenodd" clip-rule="evenodd" d="M123.721 60.1132C119.177 69.8947 113.304 77.5089 106.207 83.301L116.633 88.0383C122.143 80.2899 124.936 73.0976 126.91 66.987L127.958 63.2778L128.876 59.3652L123.721 60.1132Z" fill="white"/>
</mask>
<g mask="url(#mask6)">
<path d="M108.178 60.8047L129.91 58.8867L128.839 88.7298L105.852 87.8551L108.178 60.8047Z" fill="url(#paint6_linear)"/>
</g>
<defs>
<linearGradient id="paint0_linear" x1="284.127" y1="89.6058" x2="282.242" y2="72.0466" gradientUnits="userSpaceOnUse">
<stop stop-color="#66BB6A"/>
<stop offset="1" stop-color="#378F43"/>
</linearGradient>
<linearGradient id="paint1_linear" x1="263.523" y1="53.3763" x2="263.523" y2="71.5175" gradientUnits="userSpaceOnUse">
<stop stop-color="#66BB6A"/>
<stop offset="1" stop-color="#378F43"/>
</linearGradient>
<linearGradient id="paint2_linear" x1="177.083" y1="87.9489" x2="193.814" y2="83.7329" gradientUnits="userSpaceOnUse">
<stop stop-color="#66BB6A"/>
<stop offset="1" stop-color="#378F43"/>
</linearGradient>
<linearGradient id="paint3_linear" x1="233.583" y1="87.977" x2="243.544" y2="71.4616" gradientUnits="userSpaceOnUse">
<stop stop-color="#66BB6A"/>
<stop offset="1" stop-color="#378F43"/>
</linearGradient>
<linearGradient id="paint4_linear" x1="203.259" y1="36.2763" x2="200.371" y2="40.5715" gradientUnits="userSpaceOnUse">
<stop stop-color="#66BB6A"/>
<stop offset="1" stop-color="#378F43"/>
</linearGradient>
<linearGradient id="paint5_linear" x1="238.324" y1="45.2756" x2="236.281" y2="51.0115" gradientUnits="userSpaceOnUse">
<stop stop-color="#66BB6A"/>
<stop offset="1" stop-color="#378F43"/>
</linearGradient>
<linearGradient id="paint6_linear" x1="126.168" y1="82.2839" x2="126.168" y2="60.3461" gradientUnits="userSpaceOnUse">
<stop stop-color="#66BB6A"/>
<stop offset="1" stop-color="#378F43"/>
</linearGradient>
</defs>
</svg>
