<svg xmlns="http://www.w3.org/2000/svg" width="39" height="60" viewBox="0 0 39 60" fill="none">
  <path d="M38.7203 1.75409C38.267 0.398091 36.7778 -0.312192 35.418 0.139807L33.2813 0.850089H33.2166L3.56119 10.7295C3.36694 10.7941 3.23744 10.8586 3.04319 10.9232C2.46045 11.246 2.0072 11.7626 1.7482 12.4083C1.29495 13.7643 2.0072 15.2495 3.36694 15.7015L15.7989 19.834L27.9071 15.8306C28.6193 15.5723 29.3963 15.9597 29.6553 16.67C29.7848 16.7992 29.7848 16.9283 29.7848 17.122V25.6454C29.7848 26.8077 29.0078 27.9054 27.9071 28.2283L23.3098 29.778V42.9505L35.2885 38.9471C37.4253 38.2368 38.8498 36.2997 38.8498 34.0397V2.59351C38.8498 2.33523 38.785 2.01237 38.7203 1.75409Z" fill="#74419A"/>
  <path d="M19.7486 21.1241L3.43172 15.7001C2.07197 15.2481 1.35973 13.763 1.81298 12.407C2.00723 11.7613 2.46047 11.2447 3.10797 10.9219C1.23023 11.7613 -1.52588e-05 13.6339 -1.52588e-05 15.6356V49.5354C-1.52588e-05 51.7309 1.42448 53.7326 3.56122 54.4428L19.9429 59.8668C21.3026 60.3188 22.7919 59.6085 23.2451 58.2525C23.3099 57.9943 23.3746 57.736 23.3746 57.4131V26.0315C23.3099 23.8361 21.8854 21.8344 19.7486 21.1241Z" fill="#FF7519"/>
  <path opacity="0.5" d="M3.43173 10.795C3.30224 10.8596 3.17274 10.8596 3.10799 10.9242C3.30224 10.8596 3.43173 10.795 3.62598 10.7305L3.43173 10.795Z" fill="#1D1D1B"/>
</svg>